<?xml version="1.0" standalone="no"?><!DOCTYPE svg PUBLIC "-//W3C//DTD SVG 1.1//EN" "http://www.w3.org/Graphics/SVG/1.1/DTD/svg11.dtd"><svg t="1497192963245" class="icon" style="" viewBox="0 0 1025 1024" version="1.1" xmlns="http://www.w3.org/2000/svg" p-id="2392" xmlns:xlink="http://www.w3.org/1999/xlink" width="30.029296875" height="30"><defs><style type="text/css"></style></defs><path d="M1017.856 460.8l-185.344-233.472c-20.48-25.6-58.368-25.6-78.848 0L569.344 460.8c-14.336 17.408-1.024 44.032 21.504 44.032l72.704 0c-2.048 136.192-2.048 309.248-240.64 447.488-6.144 4.096-3.072 13.312 4.096 12.288 456.704-70.656 493.568-376.832 494.592-458.752l75.776 0C1019.904 504.832 1032.192 478.208 1017.856 460.8z" p-id="2393" fill="#ffffff"></path><path d="M434.176 519.168l-72.704 0c2.048-136.192 2.048-309.248 240.64-447.488 6.144-4.096 3.072-13.312-4.096-12.288-456.704 70.656-493.568 377.856-494.592 458.752l-75.776 0c-22.528 0-35.84 26.624-21.504 44.032l185.344 233.472c20.48 25.6 58.368 25.6 78.848 0l185.344-233.472C468.992 545.792 456.704 519.168 434.176 519.168z" p-id="2394" fill="#ffffff"></path></svg>